<svg width="41" height="41" viewBox="0 0 41 41" fill="none" xmlns="http://www.w3.org/2000/svg">
<rect x="1" y="0.944336" width="39" height="39" rx="19.5" stroke="#EFF1F6"/>
<path d="M16.3 10.4443H24.7C27.9 10.4443 30.5 13.0443 30.5 16.2443V24.6443C30.5 26.1826 29.8889 27.6578 28.8012 28.7456C27.7135 29.8333 26.2383 30.4443 24.7 30.4443H16.3C13.1 30.4443 10.5 27.8443 10.5 24.6443V16.2443C10.5 14.7061 11.1111 13.2308 12.1988 12.1431C13.2865 11.0554 14.7617 10.4443 16.3 10.4443ZM16.1 12.4443C15.1452 12.4443 14.2295 12.8236 13.5544 13.4988C12.8793 14.1739 12.5 15.0896 12.5 16.0443V24.8443C12.5 26.8343 14.11 28.4443 16.1 28.4443H24.9C25.8548 28.4443 26.7705 28.0651 27.4456 27.3899C28.1207 26.7148 28.5 25.7991 28.5 24.8443V16.0443C28.5 14.0543 26.89 12.4443 24.9 12.4443H16.1ZM25.75 13.9443C26.0815 13.9443 26.3995 14.076 26.6339 14.3105C26.8683 14.5449 27 14.8628 27 15.1943C27 15.5259 26.8683 15.8438 26.6339 16.0782C26.3995 16.3126 26.0815 16.4443 25.75 16.4443C25.4185 16.4443 25.1005 16.3126 24.8661 16.0782C24.6317 15.8438 24.5 15.5259 24.5 15.1943C24.5 14.8628 24.6317 14.5449 24.8661 14.3105C25.1005 14.076 25.4185 13.9443 25.75 13.9443ZM20.5 15.4443C21.8261 15.4443 23.0979 15.9711 24.0355 16.9088C24.9732 17.8465 25.5 19.1183 25.5 20.4443C25.5 21.7704 24.9732 23.0422 24.0355 23.9799C23.0979 24.9176 21.8261 25.4443 20.5 25.4443C19.1739 25.4443 17.9021 24.9176 16.9645 23.9799C16.0268 23.0422 15.5 21.7704 15.5 20.4443C15.5 19.1183 16.0268 17.8465 16.9645 16.9088C17.9021 15.9711 19.1739 15.4443 20.5 15.4443ZM20.5 17.4443C19.7044 17.4443 18.9413 17.7604 18.3787 18.323C17.8161 18.8856 17.5 19.6487 17.5 20.4443C17.5 21.24 17.8161 22.003 18.3787 22.5657C18.9413 23.1283 19.7044 23.4443 20.5 23.4443C21.2956 23.4443 22.0587 23.1283 22.6213 22.5657C23.1839 22.003 23.5 21.24 23.5 20.4443C23.5 19.6487 23.1839 18.8856 22.6213 18.323C22.0587 17.7604 21.2956 17.4443 20.5 17.4443Z" fill="white"/>
</svg>
