<svg width="41" height="41" viewBox="0 0 41 41" fill="none" xmlns="http://www.w3.org/2000/svg">
<rect x="1" y="0.944336" width="39" height="39" rx="19.5" stroke="#EFF1F6"/>
<path d="M20.5 14.9443C21.163 14.9443 21.7989 15.2077 22.2678 15.6766C22.7366 16.1454 23 16.7813 23 17.4443C23 17.7726 22.9353 18.0977 22.8097 18.401C22.6841 18.7044 22.4999 18.98 22.2678 19.2121C22.0356 19.4442 21.76 19.6284 21.4567 19.754C21.1534 19.8797 20.8283 19.9443 20.5 19.9443C19.837 19.9443 19.2011 19.6809 18.7322 19.2121C18.2634 18.7433 18 18.1074 18 17.4443C18 16.7813 18.2634 16.1454 18.7322 15.6766C19.2011 15.2077 19.837 14.9443 20.5 14.9443ZM20.5 10.4443C22.3565 10.4443 24.137 11.1818 25.4497 12.4946C26.7625 13.8073 27.5 15.5878 27.5 17.4443C27.5 22.6943 20.5 30.4443 20.5 30.4443C20.5 30.4443 13.5 22.6943 13.5 17.4443C13.5 15.5878 14.2375 13.8073 15.5503 12.4946C16.863 11.1818 18.6435 10.4443 20.5 10.4443ZM20.5 12.4443C19.1739 12.4443 17.9021 12.9711 16.9645 13.9088C16.0268 14.8465 15.5 16.1183 15.5 17.4443C15.5 18.4443 15.5 20.4443 20.5 27.1543C25.5 20.4443 25.5 18.4443 25.5 17.4443C25.5 16.1183 24.9732 14.8465 24.0355 13.9088C23.0979 12.9711 21.8261 12.4443 20.5 12.4443Z" fill="white"/>
</svg>
