<svg width="41" height="41" viewBox="0 0 41 41" fill="none" xmlns="http://www.w3.org/2000/svg">
<rect x="1" y="0.944336" width="39" height="39" rx="19.5" stroke="#EFF1F6"/>
<path d="M20.5 28.9444C22.31 28.9444 24.045 28.7654 25.653 28.4374C27.663 28.0274 28.667 27.8234 29.583 26.6454C30.5 25.4664 30.5 24.1134 30.5 21.4074V19.4814C30.5 16.7754 30.5 15.4214 29.583 14.2434C28.667 13.0654 27.663 12.8604 25.653 12.4514C23.9565 12.1113 22.2303 11.9415 20.5 11.9444C18.69 11.9444 16.955 12.1234 15.347 12.4514C13.337 12.8614 12.333 13.0654 11.417 14.2434C10.5 15.4224 10.5 16.7754 10.5 19.4814V21.4074C10.5 24.1134 10.5 25.4674 11.417 26.6454C12.333 27.8234 13.337 28.0284 15.347 28.4374C16.955 28.7654 18.69 28.9444 20.5 28.9444Z" stroke="white" stroke-width="1.5" stroke-linecap="round" stroke-linejoin="round"/>
<path d="M24.462 20.7571C24.314 21.3631 23.524 21.7971 21.945 22.6681C20.227 23.6151 19.368 24.0881 18.673 23.9051C18.4414 23.8453 18.225 23.7373 18.038 23.5881C17.5 23.1531 17.5 22.2501 17.5 20.4441C17.5 18.6381 17.5 17.7351 18.038 17.3001C18.22 17.1531 18.438 17.0441 18.673 16.9831C19.368 16.8001 20.227 17.2731 21.945 18.2201C23.525 19.0901 24.314 19.5251 24.462 20.1311C24.512 20.3371 24.512 20.5511 24.462 20.7571Z" stroke="white" stroke-width="1.5" stroke-linecap="round" stroke-linejoin="round"/>
</svg>
