<svg width="41" height="41" viewBox="0 0 41 41" fill="none" xmlns="http://www.w3.org/2000/svg">
<rect x="1" y="0.944336" width="39" height="39" rx="19.5" stroke="#EFF1F6"/>
<path fill-rule="evenodd" clip-rule="evenodd" d="M16.8248 23.2836C20.6698 27.1286 24.2328 27.5496 25.2788 27.5886C26.5428 27.6346 27.8328 26.6026 28.3908 25.5456C27.5008 24.5016 26.3418 23.6916 25.0728 22.8136C24.3238 23.5616 23.4008 24.9516 22.1718 24.4536C21.4728 24.1726 19.7468 23.3776 18.2388 21.8686C16.7308 20.3596 15.9358 18.6346 15.6528 17.9366C15.1548 16.7056 16.5488 15.7806 17.2978 15.0316C16.4198 13.7416 15.6238 12.5526 14.5818 11.7076C13.5098 12.2676 12.4718 13.5476 12.5188 14.8286C12.5578 15.8746 12.9788 19.4376 16.8248 23.2836ZM25.2048 29.5876C23.7648 29.5346 19.6838 28.9706 15.4098 24.6976C11.1368 20.4236 10.5738 16.3436 10.5198 14.9026C10.4398 12.7066 12.1218 10.5736 14.0648 9.74056C14.2988 9.63953 14.555 9.60106 14.8084 9.62894C15.0617 9.65681 15.3034 9.75007 15.5098 9.89956C17.1178 11.0726 18.2268 12.8496 19.1798 14.2416C19.3781 14.531 19.4689 14.8807 19.4366 15.23C19.4043 15.5793 19.2508 15.9064 19.0028 16.1546L17.6468 17.5116C17.9618 18.2066 18.6028 19.4046 19.6528 20.4546C20.7028 21.5046 21.9008 22.1456 22.5968 22.4606L23.9518 21.1046C24.2006 20.8555 24.5291 20.7019 24.8798 20.6707C25.2304 20.6394 25.5809 20.7325 25.8698 20.9336C27.2898 21.9176 28.9578 23.0106 30.1738 24.5676C30.3355 24.7755 30.4383 25.023 30.4715 25.2842C30.5048 25.5454 30.4672 25.8108 30.3628 26.0526C29.5258 28.0056 27.4078 29.6686 25.2048 29.5876Z" fill="white"/>
</svg>
