<svg width="41" height="41" viewBox="0 0 41 41" fill="none" xmlns="http://www.w3.org/2000/svg">
<rect x="1" y="0.944336" width="39" height="39" rx="19.5" stroke="#EFF1F6"/>
<path d="M11.4136 28.7719H15.9565V13.489L14.5645 12.5976C12.5502 11.3085 9.8999 12.7519 9.8999 15.1382V27.265C9.8999 28.0982 10.5788 28.7736 11.4153 28.7736L11.4136 28.7719Z" stroke="white" stroke-width="1.5" stroke-linecap="round" stroke-linejoin="round"/>
<path d="M9.8999 15.1385V17.1545L15.9565 21.0339L20.4993 23.9448L25.0422 21.0339L31.1005 17.1545V15.1368C31.1005 12.7505 28.4485 11.3071 26.4325 12.5996L25.0439 13.4911L20.4993 16.4002L15.9565 13.4893L14.5645 12.5979C12.5502 11.3088 9.8999 12.7522 9.8999 15.1385Z" stroke="white" stroke-width="1.5" stroke-linecap="round" stroke-linejoin="round"/>
<path d="M25.042 28.7722H29.5849C29.7834 28.7729 29.9801 28.7344 30.1637 28.6589C30.3474 28.5833 30.5143 28.4723 30.6549 28.3322C30.7955 28.192 30.9071 28.0255 30.9832 27.8421C31.0594 27.6588 31.0986 27.4622 31.0986 27.2636V15.1368C31.0986 12.7505 28.4483 11.3071 26.4323 12.5996L25.042 13.4911V28.7722Z" stroke="white" stroke-width="1.5" stroke-linecap="round" stroke-linejoin="round"/>
</svg>
