<svg width="20" height="20" viewBox="0 0 20 20" fill="none" xmlns="http://www.w3.org/2000/svg">
<path d="M19.4498 0.564847C19.3111 0.425792 19.1462 0.315471 18.9648 0.240198C18.7833 0.164926 18.5888 0.126181 18.3923 0.126181C18.1959 0.126181 18.0014 0.164926 17.8199 0.240198C17.6384 0.315471 17.4736 0.425792 17.3348 0.564847L9.99985 7.88485L2.66485 0.549847C2.52597 0.410974 2.36111 0.300814 2.17966 0.225657C1.99822 0.150499 1.80374 0.111816 1.60735 0.111816C1.41095 0.111816 1.21648 0.150499 1.03503 0.225657C0.853586 0.300814 0.68872 0.410974 0.549847 0.549847C0.410974 0.68872 0.300814 0.853586 0.225657 1.03503C0.150499 1.21648 0.111816 1.41095 0.111816 1.60735C0.111816 1.80374 0.150499 1.99822 0.225657 2.17966C0.300814 2.36111 0.410974 2.52597 0.549847 2.66485L7.88485 9.99985L0.549847 17.3348C0.410974 17.4737 0.300814 17.6386 0.225657 17.82C0.150499 18.0015 0.111816 18.1959 0.111816 18.3923C0.111816 18.5887 0.150499 18.7832 0.225657 18.9647C0.300814 19.1461 0.410974 19.311 0.549847 19.4498C0.68872 19.5887 0.853586 19.6989 1.03503 19.774C1.21648 19.8492 1.41095 19.8879 1.60735 19.8879C1.80374 19.8879 1.99822 19.8492 2.17966 19.774C2.36111 19.6989 2.52597 19.5887 2.66485 19.4498L9.99985 12.1148L17.3348 19.4498C17.4737 19.5887 17.6386 19.6989 17.82 19.774C18.0015 19.8492 18.1959 19.8879 18.3923 19.8879C18.5887 19.8879 18.7832 19.8492 18.9647 19.774C19.1461 19.6989 19.311 19.5887 19.4498 19.4498C19.5887 19.311 19.6989 19.1461 19.774 18.9647C19.8492 18.7832 19.8879 18.5887 19.8879 18.3923C19.8879 18.1959 19.8492 18.0015 19.774 17.82C19.6989 17.6386 19.5887 17.4737 19.4498 17.3348L12.1148 9.99985L19.4498 2.66485C20.0198 2.09485 20.0198 1.13485 19.4498 0.564847Z" fill="#191C20"/>
</svg>
